<svg
  width="127"
  height="27"
  viewBox="0 0 127 27"
  fill="none"
  xmlns="http://www.w3.org/2000/svg"
>
  <path
    d="M3.608 6.408C3.608 7.00533 3.85333 7.496 4.344 7.88C4.83467 8.24267 5.45333 8.57333 6.2 8.872C6.94667 9.14933 7.74667 9.43733 8.6 9.736C9.47467 10.0133 10.2853 10.3653 11.032 10.792C11.7787 11.2187 12.3973 11.7627 12.888 12.424C13.3787 13.0853 13.624 13.9387 13.624 14.984C13.624 15.7093 13.4533 16.4133 13.112 17.096C12.792 17.7787 12.3227 18.3867 11.704 18.92C11.1067 19.432 10.3813 19.848 9.528 20.168C8.67467 20.4667 7.71467 20.616 6.648 20.616C5.496 20.616 4.42933 20.4773 3.448 20.2C2.46667 19.9227 1.69867 19.5707 1.144 19.144C0.738667 18.8453 0.493333 18.504 0.408 18.12C0.344 17.736 0.397333 17.3947 0.568 17.096C0.738667 16.776 0.994667 16.552 1.336 16.424C1.67733 16.2747 2.04 16.296 2.424 16.488C2.91467 16.7227 3.49067 16.968 4.152 17.224C4.83467 17.48 5.64533 17.608 6.584 17.608C7.75733 17.608 8.632 17.3733 9.208 16.904C9.80533 16.4347 10.104 15.816 10.104 15.048C10.104 14.4507 9.85867 13.9707 9.368 13.608C8.87733 13.224 8.25867 12.8933 7.512 12.616C6.76533 12.3173 5.95467 12.0293 5.08 11.752C4.22667 11.4747 3.42667 11.1227 2.68 10.696C1.93333 10.248 1.31467 9.69333 0.824 9.032C0.333333 8.37067 0.0880001 7.51733 0.0880001 6.472C0.0880001 5.72533 0.248 5.02133 0.568 4.36C0.909333 3.67733 1.37867 3.08 1.976 2.568C2.59467 2.056 3.33067 1.65067 4.184 1.352C5.05867 1.032 6.01867 0.872 7.064 0.872C8.344 0.872 9.34667 1.01067 10.072 1.288C10.7973 1.56533 11.4267 1.90667 11.96 2.312C12.3653 2.61067 12.5893 2.96267 12.632 3.368C12.6747 3.77333 12.6 4.136 12.408 4.456C12.216 4.776 11.9493 5 11.608 5.128C11.288 5.23467 10.9467 5.16 10.584 4.904C10.1573 4.584 9.69867 4.328 9.208 4.136C8.71733 3.944 8.00267 3.848 7.064 3.848C5.912 3.848 5.048 4.08267 4.472 4.552C3.896 5.02133 3.608 5.64 3.608 6.408ZM28.0428 13.832C28.0428 14.8347 27.8614 15.752 27.4988 16.584C27.1574 17.416 26.6881 18.1307 26.0908 18.728C25.4934 19.3253 24.7894 19.7947 23.9788 20.136C23.1681 20.456 22.3148 20.616 21.4188 20.616C20.5228 20.616 19.6694 20.456 18.8588 20.136C18.0481 19.7947 17.3441 19.3253 16.7468 18.728C16.1494 18.1307 15.6694 17.416 15.3068 16.584C14.9654 15.752 14.7948 14.8347 14.7948 13.832C14.7948 12.8293 14.9654 11.912 15.3068 11.08C15.6694 10.248 16.1494 9.53333 16.7468 8.936C17.3441 8.33867 18.0481 7.88 18.8588 7.56C19.6694 7.21867 20.5228 7.048 21.4188 7.048C22.3148 7.048 23.1681 7.21867 23.9788 7.56C24.7894 7.88 25.4934 8.33867 26.0908 8.936C26.6881 9.53333 27.1574 10.248 27.4988 11.08C27.8614 11.912 28.0428 12.8293 28.0428 13.832ZM24.6828 13.832C24.6828 12.6587 24.3628 11.7413 23.7228 11.08C23.0828 10.4187 22.3148 10.088 21.4188 10.088C20.5228 10.088 19.7548 10.4187 19.1148 11.08C18.4748 11.7413 18.1548 12.6587 18.1548 13.832C18.1548 15.0053 18.4748 15.9227 19.1148 16.584C19.7548 17.2453 20.5228 17.576 21.4188 17.576C22.3148 17.576 23.0828 17.2453 23.7228 16.584C24.3628 15.9227 24.6828 15.0053 24.6828 13.832ZM40.5603 10.376C40.6669 10.056 40.8376 9.75733 41.0723 9.48C41.3283 9.18133 41.6269 8.91467 41.9683 8.68C42.3096 8.44533 42.6616 8.264 43.0243 8.136C43.4083 7.98667 43.7816 7.912 44.1443 7.912C44.8909 7.912 45.5416 8.072 46.0963 8.392C46.6723 8.712 47.1629 9.14933 47.5683 9.704C47.9736 10.2587 48.2723 10.9093 48.4643 11.656C48.6776 12.4027 48.7843 13.2133 48.7843 14.088L48.8483 18.632C48.8483 19.144 48.6776 19.5387 48.3363 19.816C47.9949 20.072 47.6109 20.2107 47.1843 20.232C46.7789 20.232 46.4056 20.1147 46.0643 19.88C45.7229 19.624 45.5522 19.2293 45.5522 18.696L45.4883 14.088C45.4883 13.2347 45.4136 12.584 45.2643 12.136C45.1149 11.6667 44.9229 11.3467 44.6883 11.176C44.4536 10.984 44.2083 10.888 43.9523 10.888C43.6749 10.888 43.3763 11.016 43.0563 11.272C42.7576 11.528 42.4803 11.9013 42.2243 12.392C41.9683 12.8613 41.7549 13.4267 41.5843 14.088C41.4349 14.7493 41.3603 15.496 41.3603 16.328L41.3923 18.632C41.3923 19.144 41.2216 19.5387 40.8803 19.816C40.5389 20.072 40.1549 20.2107 39.7283 20.232C39.3229 20.232 38.9496 20.1147 38.6083 19.88C38.2669 19.624 38.0963 19.2293 38.0963 18.696L38.1283 13.544C38.1283 12.1573 37.9363 11.1227 37.5523 10.44C37.1683 9.736 36.7309 9.384 36.2403 9.384C35.7709 9.384 35.3336 9.58667 34.9283 9.992C34.5229 10.376 34.1709 10.8773 33.8723 11.496C33.5736 12.0933 33.3283 12.7547 33.1363 13.48C32.9656 14.2053 32.8802 14.888 32.8802 15.528V18.856C32.8802 19.3467 32.6989 19.7093 32.3363 19.944C31.9949 20.1573 31.6109 20.2533 31.1843 20.232C30.7789 20.2107 30.4056 20.072 30.0643 19.816C29.7443 19.56 29.5843 19.1973 29.5843 18.728L29.6483 8.072C29.6483 7.60267 29.7976 7.25067 30.0963 7.016C30.4163 6.78133 30.7683 6.664 31.1523 6.664C31.5363 6.664 31.8883 6.78133 32.2083 7.016C32.5283 7.25067 32.6883 7.61333 32.6883 8.104V8.616C32.8376 8.25333 33.0403 7.92267 33.2963 7.624C33.5736 7.32533 33.8723 7.08 34.1923 6.888C34.5336 6.67467 34.8856 6.51467 35.2483 6.408C35.6109 6.30133 35.9629 6.248 36.3043 6.248C36.8376 6.248 37.3389 6.36533 37.8083 6.6C38.2776 6.83467 38.6936 7.144 39.0563 7.528C39.4403 7.912 39.7603 8.34933 40.0163 8.84C40.2936 9.33067 40.4749 9.84267 40.5603 10.376ZM54.0052 14.664C54.0693 15.7733 54.4426 16.552 55.1253 17C55.8079 17.448 56.6293 17.672 57.5893 17.672C58.2719 17.672 58.9333 17.5653 59.5733 17.352C60.2133 17.1173 60.7466 16.7227 61.1733 16.168C61.5146 15.7413 61.8879 15.5173 62.2933 15.496C62.7199 15.4533 63.0719 15.5493 63.3493 15.784C63.6479 15.9973 63.8293 16.3067 63.8933 16.712C63.9786 17.1173 63.8399 17.544 63.4773 17.992C62.9013 18.76 62.1013 19.4 61.0773 19.912C60.0533 20.424 58.8906 20.68 57.5893 20.68C56.5439 20.68 55.5946 20.5307 54.7413 20.232C53.8879 19.912 53.1626 19.464 52.5653 18.888C51.9679 18.2907 51.4986 17.576 51.1573 16.744C50.8373 15.8907 50.6773 14.9307 50.6773 13.864C50.6773 12.712 50.8693 11.6773 51.2533 10.76C51.6586 9.82133 52.2026 9.02133 52.8853 8.36C53.5893 7.67733 54.4106 7.15467 55.3493 6.792C56.3093 6.42933 57.3439 6.248 58.4533 6.248C59.3279 6.248 60.1066 6.376 60.7893 6.632C61.4719 6.888 62.0479 7.22933 62.5173 7.656C62.9866 8.06133 63.3386 8.54133 63.5733 9.096C63.8079 9.65067 63.9253 10.216 63.9253 10.792C63.9253 11.496 63.7439 12.104 63.3813 12.616C63.0399 13.128 62.5599 13.5653 61.9413 13.928C61.3439 14.2693 60.6293 14.5253 59.7973 14.696C58.9653 14.8667 58.0693 14.952 57.1093 14.952C56.4053 14.952 55.7653 14.9307 55.1893 14.888C54.6133 14.8453 54.2186 14.7707 54.0052 14.664ZM54.3573 11.72C54.5919 11.784 54.9653 11.848 55.4773 11.912C55.9893 11.9547 56.5333 11.976 57.1093 11.976C58.1759 11.976 58.9973 11.9013 59.5733 11.752C60.1706 11.5813 60.4693 11.24 60.4693 10.728C60.4693 10.2373 60.3093 9.864 59.9893 9.608C59.6693 9.352 59.1359 9.224 58.3893 9.224C57.4506 9.224 56.6079 9.43733 55.8613 9.864C55.1146 10.2907 54.6133 10.9093 54.3573 11.72ZM74.2473 2.568C74.2259 2.09867 74.3966 1.75733 74.7593 1.544C75.1219 1.30933 75.5166 1.20267 75.9433 1.224C76.3699 1.224 76.7646 1.352 77.1273 1.608C77.4899 1.84267 77.6713 2.19467 77.6713 2.664C77.6926 3.624 77.7033 4.73333 77.7033 5.992C77.7033 7.25067 77.6926 8.60533 77.6713 10.056C77.6713 11.4853 77.6606 12.9787 77.6393 14.536C77.6393 16.0933 77.6286 17.6507 77.6073 19.208C77.6073 19.6773 77.4366 20.0187 77.0953 20.232C76.7539 20.4453 76.3806 20.5627 75.9753 20.584C75.5699 20.584 75.1966 20.5093 74.8553 20.36C74.5139 20.1893 74.3433 19.9653 74.3433 19.688V18.92C74.0659 19.4107 73.6606 19.7627 73.1273 19.976C72.6153 20.1893 72.1459 20.296 71.7193 20.296C70.9086 20.296 70.1299 20.1573 69.3833 19.88C68.6579 19.6027 68.0073 19.1867 67.4313 18.632C66.8766 18.0773 66.4286 17.3947 66.0872 16.584C65.7673 15.7733 65.6073 14.8453 65.6073 13.8C65.6073 12.8613 65.7673 12.008 66.0872 11.24C66.4286 10.4507 66.8766 9.77867 67.4313 9.224C68.0073 8.66933 68.6579 8.232 69.3833 7.912C70.1299 7.592 70.9193 7.432 71.7513 7.432C72.3059 7.432 72.7966 7.54933 73.2233 7.784C73.6713 7.99733 74.0233 8.28533 74.2793 8.648C74.2793 7.73067 74.2793 6.80267 74.2793 5.864C74.2793 4.92533 74.2686 3.82667 74.2473 2.568ZM74.2793 13.512C74.1939 12.4453 73.9059 11.6667 73.4153 11.176C72.9459 10.6853 72.3806 10.44 71.7193 10.44C70.9726 10.44 70.3539 10.7493 69.8633 11.368C69.3939 11.9653 69.1593 12.776 69.1593 13.8C69.1593 15.016 69.4046 15.912 69.8953 16.488C70.3859 17.0427 70.9939 17.32 71.7193 17.32C72.3806 17.32 72.9353 17.0747 73.3833 16.584C73.8526 16.072 74.1406 15.368 74.2473 14.472L74.2793 13.512ZM87.9035 2.568C87.8822 2.09867 88.0528 1.75733 88.4155 1.544C88.7782 1.30933 89.1728 1.20267 89.5995 1.224C90.0262 1.224 90.4208 1.352 90.7835 1.608C91.1462 1.84267 91.3275 2.19467 91.3275 2.664C91.3488 3.624 91.3595 4.73333 91.3595 5.992C91.3595 7.25067 91.3488 8.60533 91.3275 10.056C91.3275 11.4853 91.3168 12.9787 91.2955 14.536C91.2955 16.0933 91.2848 17.6507 91.2635 19.208C91.2635 19.6773 91.0928 20.0187 90.7515 20.232C90.4102 20.4453 90.0368 20.5627 89.6315 20.584C89.2262 20.584 88.8528 20.5093 88.5115 20.36C88.1702 20.1893 87.9995 19.9653 87.9995 19.688V18.92C87.7222 19.4107 87.3168 19.7627 86.7835 19.976C86.2715 20.1893 85.8022 20.296 85.3755 20.296C84.5648 20.296 83.7862 20.1573 83.0395 19.88C82.3142 19.6027 81.6635 19.1867 81.0875 18.632C80.5328 18.0773 80.0848 17.3947 79.7435 16.584C79.4235 15.7733 79.2635 14.8453 79.2635 13.8C79.2635 12.8613 79.4235 12.008 79.7435 11.24C80.0848 10.4507 80.5328 9.77867 81.0875 9.224C81.6635 8.66933 82.3142 8.232 83.0395 7.912C83.7862 7.592 84.5755 7.432 85.4075 7.432C85.9622 7.432 86.4528 7.54933 86.8795 7.784C87.3275 7.99733 87.6795 8.28533 87.9355 8.648C87.9355 7.73067 87.9355 6.80267 87.9355 5.864C87.9355 4.92533 87.9248 3.82667 87.9035 2.568ZM87.9355 13.512C87.8502 12.4453 87.5622 11.6667 87.0715 11.176C86.6022 10.6853 86.0368 10.44 85.3755 10.44C84.6288 10.44 84.0102 10.7493 83.5195 11.368C83.0502 11.9653 82.8155 12.776 82.8155 13.8C82.8155 15.016 83.0608 15.912 83.5515 16.488C84.0422 17.0427 84.6502 17.32 85.3755 17.32C86.0368 17.32 86.5915 17.0747 87.0395 16.584C87.5088 16.072 87.7968 15.368 87.9035 14.472L87.9355 13.512ZM93.9438 9.352C93.9224 8.88267 94.0824 8.54133 94.4238 8.328C94.7864 8.09333 95.1811 7.98667 95.6078 8.008C96.0344 8.008 96.4291 8.12533 96.7918 8.36C97.1544 8.59467 97.3358 8.95733 97.3358 9.448C97.4211 11.368 97.4638 13.1493 97.4638 14.792C97.4638 16.4133 97.4638 17.832 97.4638 19.048C97.4638 19.4747 97.2824 19.7947 96.9198 20.008C96.5571 20.2 96.1624 20.2853 95.7358 20.264C95.3091 20.2427 94.9144 20.104 94.5518 19.848C94.1891 19.592 94.0078 19.2293 94.0078 18.76C94.0504 17.6293 94.0611 16.264 94.0398 14.664C94.0184 13.064 93.9864 11.2933 93.9438 9.352ZM93.6558 3.176C93.5704 2.70667 93.6238 2.32266 93.8158 2.024C94.0078 1.704 94.2638 1.46933 94.5838 1.32C94.9038 1.17067 95.2558 1.096 95.6398 1.096C96.0238 1.096 96.3758 1.18133 96.6958 1.352C97.0371 1.50133 97.3038 1.736 97.4958 2.056C97.7091 2.35467 97.7838 2.73867 97.7198 3.208L97.5278 4.584C97.4424 5.032 97.2184 5.37333 96.8558 5.608C96.4931 5.82133 96.0984 5.928 95.6718 5.928C95.2664 5.928 94.8824 5.82133 94.5198 5.608C94.1784 5.37333 93.9651 5.032 93.8798 4.584L93.6558 3.176ZM103.193 18.888C103.193 19.3787 103.011 19.7413 102.649 19.976C102.307 20.1893 101.934 20.2853 101.529 20.264C101.123 20.2213 100.75 20.072 100.409 19.816C100.067 19.56 99.9074 19.1973 99.9288 18.728L99.9928 8.104C99.9928 7.656 100.153 7.31467 100.473 7.08C100.814 6.84533 101.177 6.728 101.561 6.728C101.945 6.728 102.297 6.856 102.617 7.112C102.958 7.34667 103.129 7.70933 103.129 8.2V9.48C103.299 9.11733 103.513 8.76533 103.769 8.424C104.025 8.06133 104.323 7.752 104.665 7.496C105.006 7.21867 105.379 6.99467 105.785 6.824C106.19 6.65333 106.627 6.568 107.097 6.568C108.931 6.568 110.265 7.16533 111.097 8.36C111.95 9.53333 112.377 11.208 112.377 13.384L112.441 18.664C112.441 19.1547 112.27 19.5387 111.929 19.816C111.587 20.072 111.203 20.2107 110.777 20.232C110.371 20.2533 109.987 20.136 109.625 19.88C109.283 19.624 109.113 19.2293 109.113 18.696L109.017 13.384C109.017 12.8293 108.974 12.3173 108.889 11.848C108.825 11.3573 108.707 10.9413 108.537 10.6C108.387 10.2373 108.185 9.96 107.929 9.768C107.694 9.576 107.406 9.512 107.065 9.576C106.595 9.64 106.126 9.88533 105.657 10.312C105.187 10.7173 104.771 11.2293 104.409 11.848C104.046 12.4667 103.747 13.16 103.513 13.928C103.299 14.696 103.193 15.4747 103.193 16.264V18.888ZM120.415 20.616C119.455 20.616 118.58 20.4453 117.791 20.104C117.002 19.7627 116.319 19.2933 115.743 18.696C115.167 18.0987 114.719 17.384 114.399 16.552C114.1 15.72 113.951 14.8133 113.951 13.832C113.951 12.7867 114.122 11.8267 114.463 10.952C114.826 10.056 115.306 9.288 115.903 8.648C116.5 7.98667 117.183 7.47467 117.951 7.112C118.74 6.74933 119.551 6.568 120.383 6.568C121.002 6.568 121.599 6.71733 122.175 7.016C122.751 7.29333 123.156 7.69867 123.391 8.232V7.624C123.391 7.304 123.562 7.05867 123.903 6.888C124.266 6.71733 124.65 6.64267 125.055 6.664C125.482 6.68533 125.866 6.792 126.207 6.984C126.57 7.176 126.751 7.48533 126.751 7.912L126.943 20.52C126.943 21.3947 126.826 22.2053 126.591 22.952C126.356 23.6987 126.036 24.3387 125.631 24.872C125.226 25.4267 124.746 25.8533 124.191 26.152C123.636 26.472 123.039 26.632 122.399 26.632C121.716 26.632 121.226 26.4827 120.927 26.184C120.65 25.9067 120.511 25.5653 120.511 25.16C120.511 24.7973 120.618 24.4667 120.831 24.168C121.044 23.8907 121.343 23.7093 121.727 23.624C122.474 23.4533 122.986 23.0693 123.263 22.472C123.562 21.896 123.711 21.2027 123.711 20.392V18.728C123.476 19.176 123.05 19.6027 122.431 20.008C121.834 20.4133 121.162 20.616 120.415 20.616ZM120.383 17.64C121.258 17.64 121.994 17.2667 122.591 16.52C123.188 15.7733 123.487 14.728 123.487 13.384C123.487 12.1253 123.188 11.176 122.591 10.536C122.015 9.87467 121.279 9.544 120.383 9.544C119.572 9.544 118.868 9.91733 118.271 10.664C117.674 11.4107 117.375 12.4667 117.375 13.832C117.375 14.408 117.45 14.9307 117.599 15.4C117.77 15.8693 117.994 16.2747 118.271 16.616C118.548 16.936 118.868 17.192 119.231 17.384C119.594 17.5547 119.978 17.64 120.383 17.64Z"
    fill="#36633F"
  />
</svg>
